<?xml version="1.0" encoding="UTF-8"?>
<svg xmlns="http://www.w3.org/2000/svg" xmlns:xlink="http://www.w3.org/1999/xlink" width="0" height="0">
<symbol id="arrow-down" viewBox="0 0 15 15" fill="none"><path d="M7.5 2C7.77614 2 8 2.22386 8 2.5L8 11.2929L11.1464 8.14645C11.3417 7.95118 11.6583 7.95118 11.8536 8.14645C12.0488 8.34171 12.0488 8.65829 11.8536 8.85355L7.85355 12.8536C7.75979 12.9473 7.63261 13 7.5 13C7.36739 13 7.24021 12.9473 7.14645 12.8536L3.14645 8.85355C2.95118 8.65829 2.95118 8.34171 3.14645 8.14645C3.34171 7.95118 3.65829 7.95118 3.85355 8.14645L7 11.2929L7 2.5C7 2.22386 7.22386 2 7.5 2Z" fill="currentColor" fill-rule="evenodd" clip-rule="evenodd"></path></symbol>

<!-- Downloaded from @radix-ui/icons -->
<!-- License https://github.com/radix-ui/icons/blob/master/LICENSE -->
<!-- https://github.com/radix-ui/icons/blob/master/packages/radix-icons/icons/arrow-left.svg -->
<symbol id="arrow-left" viewBox="0 0 15 15" fill="none">
  <path
    fill-rule="evenodd"
    clip-rule="evenodd"
    d="M6.85355 3.14645C7.04882 3.34171 7.04882 3.65829 6.85355 3.85355L3.70711 7H12.5C12.7761 7 13 7.22386 13 7.5C13 7.77614 12.7761 8 12.5 8H3.70711L6.85355 11.1464C7.04882 11.3417 7.04882 11.6583 6.85355 11.8536C6.65829 12.0488 6.34171 12.0488 6.14645 11.8536L2.14645 7.85355C1.95118 7.65829 1.95118 7.34171 2.14645 7.14645L6.14645 3.14645C6.34171 2.95118 6.65829 2.95118 6.85355 3.14645Z"
    fill="currentColor"
  />
</symbol>

<!-- Downloaded from @radix-ui/icons -->
<!-- License https://github.com/radix-ui/icons/blob/master/LICENSE -->
<!-- https://github.com/radix-ui/icons/blob/master/packages/radix-icons/icons/arrow-right.svg -->
<symbol id="arrow-right" viewBox="0 0 15 15" fill="none">
  <path
    fill-rule="evenodd"
    clip-rule="evenodd"
    d="M8.14645 3.14645C8.34171 2.95118 8.65829 2.95118 8.85355 3.14645L12.8536 7.14645C13.0488 7.34171 13.0488 7.65829 12.8536 7.85355L8.85355 11.8536C8.65829 12.0488 8.34171 12.0488 8.14645 11.8536C7.95118 11.6583 7.95118 11.3417 8.14645 11.1464L11.2929 8H2.5C2.22386 8 2 7.77614 2 7.5C2 7.22386 2.22386 7 2.5 7H11.2929L8.14645 3.85355C7.95118 3.65829 7.95118 3.34171 8.14645 3.14645Z"
    fill="currentColor"
  />
</symbol>

<symbol id="arrow-up" viewBox="0 0 15 15" fill="none"><path d="M7.14645 2.14645C7.34171 1.95118 7.65829 1.95118 7.85355 2.14645L11.8536 6.14645C12.0488 6.34171 12.0488 6.65829 11.8536 6.85355C11.6583 7.04882 11.3417 7.04882 11.1464 6.85355L8 3.70711L8 12.5C8 12.7761 7.77614 13 7.5 13C7.22386 13 7 12.7761 7 12.5L7 3.70711L3.85355 6.85355C3.65829 7.04882 3.34171 7.04882 3.14645 6.85355C2.95118 6.65829 2.95118 6.34171 3.14645 6.14645L7.14645 2.14645Z" fill="currentColor" fill-rule="evenodd" clip-rule="evenodd"></path></symbol>

<symbol id="arrows-up-down" fill="none" viewBox="0 0 24 24" stroke-width="1.5" stroke="currentColor" class="w-6 h-6">
  <path stroke-linecap="round" stroke-linejoin="round" d="M3 7.5L7.5 3m0 0L12 7.5M7.5 3v13.5m13.5 0L16.5 21m0 0L12 16.5m4.5 4.5V7.5" />
</symbol>

<symbol id="avatar" viewBox="0 0 15 15" fill="none">
  <path
    fill-rule="evenodd"
    clip-rule="evenodd"
    d="M0.877014 7.49988C0.877014 3.84219 3.84216 0.877045 7.49985 0.877045C11.1575 0.877045 14.1227 3.84219 14.1227 7.49988C14.1227 11.1575 11.1575 14.1227 7.49985 14.1227C3.84216 14.1227 0.877014 11.1575 0.877014 7.49988ZM7.49985 1.82704C4.36683 1.82704 1.82701 4.36686 1.82701 7.49988C1.82701 8.97196 2.38774 10.3131 3.30727 11.3213C4.19074 9.94119 5.73818 9.02499 7.50023 9.02499C9.26206 9.02499 10.8093 9.94097 11.6929 11.3208C12.6121 10.3127 13.1727 8.97172 13.1727 7.49988C13.1727 4.36686 10.6328 1.82704 7.49985 1.82704ZM10.9818 11.9787C10.2839 10.7795 8.9857 9.97499 7.50023 9.97499C6.01458 9.97499 4.71624 10.7797 4.01845 11.9791C4.97952 12.7272 6.18765 13.1727 7.49985 13.1727C8.81227 13.1727 10.0206 12.727 10.9818 11.9787ZM5.14999 6.50487C5.14999 5.207 6.20212 4.15487 7.49999 4.15487C8.79786 4.15487 9.84999 5.207 9.84999 6.50487C9.84999 7.80274 8.79786 8.85487 7.49999 8.85487C6.20212 8.85487 5.14999 7.80274 5.14999 6.50487ZM7.49999 5.10487C6.72679 5.10487 6.09999 5.73167 6.09999 6.50487C6.09999 7.27807 6.72679 7.90487 7.49999 7.90487C8.27319 7.90487 8.89999 7.27807 8.89999 6.50487C8.89999 5.73167 8.27319 5.10487 7.49999 5.10487Z"
    fill="currentColor"
  />
</symbol>

<symbol id="banknote" fill="none" viewBox="0 0 24 24" stroke-width="1.5" stroke="currentColor">
  <path stroke-linecap="round" stroke-linejoin="round" d="M2.25 18.75a60.07 60.07 0 0115.797 2.101c.727.198 1.453-.342 1.453-1.096V18.75M3.75 4.5v.75A.75.75 0 013 6h-.75m0 0v-.375c0-.621.504-1.125 1.125-1.125H20.25M2.25 6v9m18-10.5v.75c0 .414.336.75.75.75h.75m-1.5-1.5h.375c.621 0 1.125.504 1.125 1.125v9.75c0 .621-.504 1.125-1.125 1.125h-.375m1.5-1.5H21a.75.75 0 00-.75.75v.75m0 0H3.75m0 0h-.375a1.125 1.125 0 01-1.125-1.125V15m1.5 1.5v-.75A.75.75 0 003 15h-.75M15 10.5a3 3 0 11-6 0 3 3 0 016 0zm3 0h.008v.008H18V10.5zm-12 0h.008v.008H6V10.5z" />
</symbol>

<symbol id="bar-chart" viewBox="0 0 15 15" fill="none"><path d="M11.5 1C11.7761 1 12 1.22386 12 1.5V13.5C12 13.7761 11.7761 14 11.5 14C11.2239 14 11 13.7761 11 13.5V1.5C11 1.22386 11.2239 1 11.5 1ZM9.5 3C9.77614 3 10 3.22386 10 3.5V13.5C10 13.7761 9.77614 14 9.5 14C9.22386 14 9 13.7761 9 13.5V3.5C9 3.22386 9.22386 3 9.5 3ZM13.5 3C13.7761 3 14 3.22386 14 3.5V13.5C14 13.7761 13.7761 14 13.5 14C13.2239 14 13 13.7761 13 13.5V3.5C13 3.22386 13.2239 3 13.5 3ZM5.5 4C5.77614 4 6 4.22386 6 4.5V13.5C6 13.7761 5.77614 14 5.5 14C5.22386 14 5 13.7761 5 13.5V4.5C5 4.22386 5.22386 4 5.5 4ZM1.5 5C1.77614 5 2 5.22386 2 5.5V13.5C2 13.7761 1.77614 14 1.5 14C1.22386 14 1 13.7761 1 13.5V5.5C1 5.22386 1.22386 5 1.5 5ZM7.5 5C7.77614 5 8 5.22386 8 5.5V13.5C8 13.7761 7.77614 14 7.5 14C7.22386 14 7 13.7761 7 13.5V5.5C7 5.22386 7.22386 5 7.5 5ZM3.5 7C3.77614 7 4 7.22386 4 7.5V13.5C4 13.7761 3.77614 14 3.5 14C3.22386 14 3 13.7761 3 13.5V7.5C3 7.22386 3.22386 7 3.5 7Z" fill="currentColor" fill-rule="evenodd" clip-rule="evenodd"></path></symbol>

<symbol id="bell" fill="none" viewBox="0 0 24 24" stroke-width="1.5" stroke="currentColor">
  <path stroke-linecap="round" stroke-linejoin="round" d="M14.857 17.082a23.848 23.848 0 005.454-1.31A8.967 8.967 0 0118 9.75v-.7V9A6 6 0 006 9v.75a8.967 8.967 0 01-2.312 6.022c1.733.64 3.56 1.085 5.455 1.31m5.714 0a24.255 24.255 0 01-5.714 0m5.714 0a3 3 0 11-5.714 0" />
</symbol>

<symbol id="calendar" viewBox="0 0 15 15" fill="none"><path d="M4.5 1C4.77614 1 5 1.22386 5 1.5V2H10V1.5C10 1.22386 10.2239 1 10.5 1C10.7761 1 11 1.22386 11 1.5V2H12.5C13.3284 2 14 2.67157 14 3.5V12.5C14 13.3284 13.3284 14 12.5 14H2.5C1.67157 14 1 13.3284 1 12.5V3.5C1 2.67157 1.67157 2 2.5 2H4V1.5C4 1.22386 4.22386 1 4.5 1ZM10 3V3.5C10 3.77614 10.2239 4 10.5 4C10.7761 4 11 3.77614 11 3.5V3H12.5C12.7761 3 13 3.22386 13 3.5V5H2V3.5C2 3.22386 2.22386 3 2.5 3H4V3.5C4 3.77614 4.22386 4 4.5 4C4.77614 4 5 3.77614 5 3.5V3H10ZM2 6V12.5C2 12.7761 2.22386 13 2.5 13H12.5C12.7761 13 13 12.7761 13 12.5V6H2ZM7 7.5C7 7.22386 7.22386 7 7.5 7C7.77614 7 8 7.22386 8 7.5C8 7.77614 7.77614 8 7.5 8C7.22386 8 7 7.77614 7 7.5ZM9.5 7C9.22386 7 9 7.22386 9 7.5C9 7.77614 9.22386 8 9.5 8C9.77614 8 10 7.77614 10 7.5C10 7.22386 9.77614 7 9.5 7ZM11 7.5C11 7.22386 11.2239 7 11.5 7C11.7761 7 12 7.22386 12 7.5C12 7.77614 11.7761 8 11.5 8C11.2239 8 11 7.77614 11 7.5ZM11.5 9C11.2239 9 11 9.22386 11 9.5C11 9.77614 11.2239 10 11.5 10C11.7761 10 12 9.77614 12 9.5C12 9.22386 11.7761 9 11.5 9ZM9 9.5C9 9.22386 9.22386 9 9.5 9C9.77614 9 10 9.22386 10 9.5C10 9.77614 9.77614 10 9.5 10C9.22386 10 9 9.77614 9 9.5ZM7.5 9C7.22386 9 7 9.22386 7 9.5C7 9.77614 7.22386 10 7.5 10C7.77614 10 8 9.77614 8 9.5C8 9.22386 7.77614 9 7.5 9ZM5 9.5C5 9.22386 5.22386 9 5.5 9C5.77614 9 6 9.22386 6 9.5C6 9.77614 5.77614 10 5.5 10C5.22386 10 5 9.77614 5 9.5ZM3.5 9C3.22386 9 3 9.22386 3 9.5C3 9.77614 3.22386 10 3.5 10C3.77614 10 4 9.77614 4 9.5C4 9.22386 3.77614 9 3.5 9ZM3 11.5C3 11.2239 3.22386 11 3.5 11C3.77614 11 4 11.2239 4 11.5C4 11.7761 3.77614 12 3.5 12C3.22386 12 3 11.7761 3 11.5ZM5.5 11C5.22386 11 5 11.2239 5 11.5C5 11.7761 5.22386 12 5.5 12C5.77614 12 6 11.7761 6 11.5C6 11.2239 5.77614 11 5.5 11ZM7 11.5C7 11.2239 7.22386 11 7.5 11C7.77614 11 8 11.2239 8 11.5C8 11.7761 7.77614 12 7.5 12C7.22386 12 7 11.7761 7 11.5ZM9.5 11C9.22386 11 9 11.2239 9 11.5C9 11.7761 9.22386 12 9.5 12C9.77614 12 10 11.7761 10 11.5C10 11.2239 9.77614 11 9.5 11Z" fill="currentColor" fill-rule="evenodd" clip-rule="evenodd"></path></symbol>

<symbol id="camera" viewBox="0 0 15 15" fill="none">
  <path
    fill-rule="evenodd"
    clip-rule="evenodd"
    d="M2 3C1.44772 3 1 3.44772 1 4V11C1 11.5523 1.44772 12 2 12H13C13.5523 12 14 11.5523 14 11V4C14 3.44772 13.5523 3 13 3H2ZM0 4C0 2.89543 0.895431 2 2 2H13C14.1046 2 15 2.89543 15 4V11C15 12.1046 14.1046 13 13 13H2C0.895431 13 0 12.1046 0 11V4ZM2 4.25C2 4.11193 2.11193 4 2.25 4H4.75C4.88807 4 5 4.11193 5 4.25V5.75454C5 5.89261 4.88807 6.00454 4.75 6.00454H2.25C2.11193 6.00454 2 5.89261 2 5.75454V4.25ZM12.101 7.58421C12.101 9.02073 10.9365 10.1853 9.49998 10.1853C8.06346 10.1853 6.89893 9.02073 6.89893 7.58421C6.89893 6.14769 8.06346 4.98315 9.49998 4.98315C10.9365 4.98315 12.101 6.14769 12.101 7.58421ZM13.101 7.58421C13.101 9.57302 11.4888 11.1853 9.49998 11.1853C7.51117 11.1853 5.89893 9.57302 5.89893 7.58421C5.89893 5.5954 7.51117 3.98315 9.49998 3.98315C11.4888 3.98315 13.101 5.5954 13.101 7.58421Z"
    fill="currentColor"
  />
</symbol>

<symbol id="caret-sort" viewBox="0 0 15 15" fill="none"><path d="M4.93179 5.43179C4.75605 5.60753 4.75605 5.89245 4.93179 6.06819C5.10753 6.24392 5.39245 6.24392 5.56819 6.06819L7.49999 4.13638L9.43179 6.06819C9.60753 6.24392 9.89245 6.24392 10.0682 6.06819C10.2439 5.89245 10.2439 5.60753 10.0682 5.43179L7.81819 3.18179C7.73379 3.0974 7.61933 3.04999 7.49999 3.04999C7.38064 3.04999 7.26618 3.0974 7.18179 3.18179L4.93179 5.43179ZM10.0682 9.56819C10.2439 9.39245 10.2439 9.10753 10.0682 8.93179C9.89245 8.75606 9.60753 8.75606 9.43179 8.93179L7.49999 10.8636L5.56819 8.93179C5.39245 8.75606 5.10753 8.75606 4.93179 8.93179C4.75605 9.10753 4.75605 9.39245 4.93179 9.56819L7.18179 11.8182C7.35753 11.9939 7.64245 11.9939 7.81819 11.8182L10.0682 9.56819Z" fill="currentColor" fill-rule="evenodd" clip-rule="evenodd"></path></symbol>

<!-- Downloaded from @radix-ui/icons -->
<!-- License https://github.com/radix-ui/icons/blob/master/LICENSE -->
<!-- https://github.com/radix-ui/icons/blob/master/packages/radix-icons/icons/check.svg -->
<symbol id="check" viewBox="0 0 15 15" fill="none">
  <path
    fill-rule="evenodd"
    clip-rule="evenodd"
    d="M11.4669 3.72684C11.7558 3.91574 11.8369 4.30308 11.648 4.59198L7.39799 11.092C7.29783 11.2452 7.13556 11.3467 6.95402 11.3699C6.77247 11.3931 6.58989 11.3355 6.45446 11.2124L3.70446 8.71241C3.44905 8.48022 3.43023 8.08494 3.66242 7.82953C3.89461 7.57412 4.28989 7.55529 4.5453 7.78749L6.75292 9.79441L10.6018 3.90792C10.7907 3.61902 11.178 3.53795 11.4669 3.72684Z"
    fill="currentColor"
  />
</symbol>

<symbol id="chevron-down" viewBox="0 0 15 15" fill="none"><path d="M3.13523 6.15803C3.3241 5.95657 3.64052 5.94637 3.84197 6.13523L7.5 9.56464L11.158 6.13523C11.3595 5.94637 11.6759 5.95657 11.8648 6.15803C12.0536 6.35949 12.0434 6.67591 11.842 6.86477L7.84197 10.6148C7.64964 10.7951 7.35036 10.7951 7.15803 10.6148L3.15803 6.86477C2.95657 6.67591 2.94637 6.35949 3.13523 6.15803Z" fill="currentColor" fill-rule="evenodd" clip-rule="evenodd"></path></symbol>

<symbol id="chevron-left" viewBox="0 0 15 15" fill="none"><path d="M8.84182 3.13514C9.04327 3.32401 9.05348 3.64042 8.86462 3.84188L5.43521 7.49991L8.86462 11.1579C9.05348 11.3594 9.04327 11.6758 8.84182 11.8647C8.64036 12.0535 8.32394 12.0433 8.13508 11.8419L4.38508 7.84188C4.20477 7.64955 4.20477 7.35027 4.38508 7.15794L8.13508 3.15794C8.32394 2.95648 8.64036 2.94628 8.84182 3.13514Z" fill="currentColor" fill-rule="evenodd" clip-rule="evenodd"></path></symbol>

<symbol id="chevron-right" viewBox="0 0 15 15" fill="none"><path d="M6.1584 3.13508C6.35985 2.94621 6.67627 2.95642 6.86514 3.15788L10.6151 7.15788C10.7954 7.3502 10.7954 7.64949 10.6151 7.84182L6.86514 11.8418C6.67627 12.0433 6.35985 12.0535 6.1584 11.8646C5.95694 11.6757 5.94673 11.3593 6.1356 11.1579L9.565 7.49985L6.1356 3.84182C5.94673 3.64036 5.95694 3.32394 6.1584 3.13508Z" fill="currentColor" fill-rule="evenodd" clip-rule="evenodd"></path></symbol>

<symbol id="chevron-up" viewBox="0 0 15 15" fill="none"><path d="M3.13523 8.84197C3.3241 9.04343 3.64052 9.05363 3.84197 8.86477L7.5 5.43536L11.158 8.86477C11.3595 9.05363 11.6759 9.04343 11.8648 8.84197C12.0536 8.64051 12.0434 8.32409 11.842 8.13523L7.84197 4.38523C7.64964 4.20492 7.35036 4.20492 7.15803 4.38523L3.15803 8.13523C2.95657 8.32409 2.94637 8.64051 3.13523 8.84197Z" fill="currentColor" fill-rule="evenodd" clip-rule="evenodd"></path></symbol>

<symbol id="circle" viewBox="0 0 24 24">
<path d="M12 2C6.486 2 2 6.486 2 12c.001 5.515 4.487 10.001 10 10.001 5.514 0 10-4.486 10.001-10.001 0-5.514-4.486-10-10.001-10zm0 18.001c-4.41 0-7.999-3.589-8-8.001 0-4.411 3.589-8 8-8 4.412 0 8.001 3.589 8.001 8-.001 4.412-3.59 8.001-8.001 8.001z" />
</symbol>

<!-- Downloaded from @radix-ui/icons -->
<!-- License https://github.com/radix-ui/icons/blob/master/LICENSE -->
<!-- https://github.com/radix-ui/icons/blob/master/packages/radix-icons/icons/clock.svg -->
<symbol id="clock" viewBox="0 0 15 15" fill="none">
  <path
    fill-rule="evenodd"
    clip-rule="evenodd"
    d="M7.50009 0.877014C3.84241 0.877014 0.877258 3.84216 0.877258 7.49984C0.877258 11.1575 3.8424 14.1227 7.50009 14.1227C11.1578 14.1227 14.1229 11.1575 14.1229 7.49984C14.1229 3.84216 11.1577 0.877014 7.50009 0.877014ZM1.82726 7.49984C1.82726 4.36683 4.36708 1.82701 7.50009 1.82701C10.6331 1.82701 13.1729 4.36683 13.1729 7.49984C13.1729 10.6328 10.6331 13.1727 7.50009 13.1727C4.36708 13.1727 1.82726 10.6328 1.82726 7.49984ZM8 4.50001C8 4.22387 7.77614 4.00001 7.5 4.00001C7.22386 4.00001 7 4.22387 7 4.50001V7.50001C7 7.63262 7.05268 7.7598 7.14645 7.85357L9.14645 9.85357C9.34171 10.0488 9.65829 10.0488 9.85355 9.85357C10.0488 9.65831 10.0488 9.34172 9.85355 9.14646L8 7.29291V4.50001Z"
    fill="currentColor"
  />
</symbol>

<symbol id="credit-card" fill="none" viewBox="0 0 24 24" stroke-width="1.5" stroke="currentColor">
  <path stroke-linecap="round" stroke-linejoin="round" d="M2.25 8.25h19.5M2.25 9h19.5m-16.5 5.25h6m-6 2.25h3m-3.75 3h15a2.25 2.25 0 002.25-2.25V6.75A2.25 2.25 0 0019.5 4.5h-15a2.25 2.25 0 00-2.25 2.25v10.5A2.25 2.25 0 004.5 19.5z" />
</symbol>

<!-- Downloaded from @radix-ui/icons -->
<!-- License https://github.com/radix-ui/icons/blob/master/LICENSE -->
<!-- https://github.com/radix-ui/icons/blob/master/packages/radix-icons/icons/cross-1.svg -->
<symbol id="cross-1" viewBox="0 0 15 15" fill="none">
  <path
    fill-rule="evenodd"
    clip-rule="evenodd"
    d="M12.8536 2.85355C13.0488 2.65829 13.0488 2.34171 12.8536 2.14645C12.6583 1.95118 12.3417 1.95118 12.1464 2.14645L7.5 6.79289L2.85355 2.14645C2.65829 1.95118 2.34171 1.95118 2.14645 2.14645C1.95118 2.34171 1.95118 2.65829 2.14645 2.85355L6.79289 7.5L2.14645 12.1464C1.95118 12.3417 1.95118 12.6583 2.14645 12.8536C2.34171 13.0488 2.65829 13.0488 2.85355 12.8536L7.5 8.20711L12.1464 12.8536C12.3417 13.0488 12.6583 13.0488 12.8536 12.8536C13.0488 12.6583 13.0488 12.3417 12.8536 12.1464L8.20711 7.5L12.8536 2.85355Z"
    fill="currentColor"
  />
</symbol>

<symbol id="dot-filled" viewBox="0 0 15 15" fill="none"><path d="M9.875 7.5C9.875 8.81168 8.81168 9.875 7.5 9.875C6.18832 9.875 5.125 8.81168 5.125 7.5C5.125 6.18832 6.18832 5.125 7.5 5.125C8.81168 5.125 9.875 6.18832 9.875 7.5Z" fill="currentColor"></path></symbol>

<symbol id="dots-horizontal" viewBox="0 0 15 15" fill="none"><path d="M3.625 7.5C3.625 8.12132 3.12132 8.625 2.5 8.625C1.87868 8.625 1.375 8.12132 1.375 7.5C1.375 6.87868 1.87868 6.375 2.5 6.375C3.12132 6.375 3.625 6.87868 3.625 7.5ZM8.625 7.5C8.625 8.12132 8.12132 8.625 7.5 8.625C6.87868 8.625 6.375 8.12132 6.375 7.5C6.375 6.87868 6.87868 6.375 7.5 6.375C8.12132 6.375 8.625 6.87868 8.625 7.5ZM12.5 8.625C13.1213 8.625 13.625 8.12132 13.625 7.5C13.625 6.87868 13.1213 6.375 12.5 6.375C11.8787 6.375 11.375 6.87868 11.375 7.5C11.375 8.12132 11.8787 8.625 12.5 8.625Z" fill="currentColor" fill-rule="evenodd" clip-rule="evenodd"></path></symbol>

<symbol id="exclamation-triangle" viewBox="0 0 15 15" fill="none"><path d="M8.4449 0.608765C8.0183 -0.107015 6.9817 -0.107015 6.55509 0.608766L0.161178 11.3368C-0.275824 12.07 0.252503 13 1.10608 13H13.8939C14.7475 13 15.2758 12.07 14.8388 11.3368L8.4449 0.608765ZM7.4141 1.12073C7.45288 1.05566 7.54712 1.05566 7.5859 1.12073L13.9798 11.8488C14.0196 11.9154 13.9715 12 13.8939 12H1.10608C1.02849 12 0.980454 11.9154 1.02018 11.8488L7.4141 1.12073ZM6.8269 4.48611C6.81221 4.10423 7.11783 3.78663 7.5 3.78663C7.88217 3.78663 8.18778 4.10423 8.1731 4.48612L8.01921 8.48701C8.00848 8.766 7.7792 8.98664 7.5 8.98664C7.2208 8.98664 6.99151 8.766 6.98078 8.48701L6.8269 4.48611ZM8.24989 10.476C8.24989 10.8902 7.9141 11.226 7.49989 11.226C7.08567 11.226 6.74989 10.8902 6.74989 10.476C6.74989 10.0618 7.08567 9.72599 7.49989 9.72599C7.9141 9.72599 8.24989 10.0618 8.24989 10.476Z" fill="currentColor" fill-rule="evenodd" clip-rule="evenodd"></path></symbol>

<symbol id="exit" viewBox="0 0 15 15" fill="none">
  <path
    fill-rule="evenodd"
    clip-rule="evenodd"
    d="M3 1C2.44771 1 2 1.44772 2 2V13C2 13.5523 2.44772 14 3 14H10.5C10.7761 14 11 13.7761 11 13.5C11 13.2239 10.7761 13 10.5 13H3V2L10.5 2C10.7761 2 11 1.77614 11 1.5C11 1.22386 10.7761 1 10.5 1H3ZM12.6036 4.89645C12.4083 4.70118 12.0917 4.70118 11.8964 4.89645C11.7012 5.09171 11.7012 5.40829 11.8964 5.60355L13.2929 7H6.5C6.22386 7 6 7.22386 6 7.5C6 7.77614 6.22386 8 6.5 8H13.2929L11.8964 9.39645C11.7012 9.59171 11.7012 9.90829 11.8964 10.1036C12.0917 10.2988 12.4083 10.2988 12.6036 10.1036L14.8536 7.85355C15.0488 7.65829 15.0488 7.34171 14.8536 7.14645L12.6036 4.89645Z"
    fill="currentColor"
  />
</symbol>

<symbol id="eye-none" viewBox="0 0 15 15" fill="none"><path d="M13.3536 2.35355C13.5488 2.15829 13.5488 1.84171 13.3536 1.64645C13.1583 1.45118 12.8417 1.45118 12.6464 1.64645L10.6828 3.61012C9.70652 3.21671 8.63759 3 7.5 3C4.30786 3 1.65639 4.70638 0.0760002 7.23501C-0.0253338 7.39715 -0.0253334 7.60288 0.0760014 7.76501C0.902945 9.08812 2.02314 10.1861 3.36061 10.9323L1.64645 12.6464C1.45118 12.8417 1.45118 13.1583 1.64645 13.3536C1.84171 13.5488 2.15829 13.5488 2.35355 13.3536L4.31723 11.3899C5.29348 11.7833 6.36241 12 7.5 12C10.6921 12 13.3436 10.2936 14.924 7.76501C15.0253 7.60288 15.0253 7.39715 14.924 7.23501C14.0971 5.9119 12.9769 4.81391 11.6394 4.06771L13.3536 2.35355ZM9.90428 4.38861C9.15332 4.1361 8.34759 4 7.5 4C4.80285 4 2.52952 5.37816 1.09622 7.50001C1.87284 8.6497 2.89609 9.58106 4.09974 10.1931L9.90428 4.38861ZM5.09572 10.6114L10.9003 4.80685C12.1039 5.41894 13.1272 6.35031 13.9038 7.50001C12.4705 9.62183 10.1971 11 7.5 11C6.65241 11 5.84668 10.8639 5.09572 10.6114Z" fill="currentColor" fill-rule="evenodd" clip-rule="evenodd"></path></symbol>

<!-- Downloaded from @radix-ui/icons -->
<!-- License https://github.com/radix-ui/icons/blob/master/LICENSE -->
<!-- https://github.com/radix-ui/icons/blob/master/packages/radix-icons/icons/file-text.svg -->
<symbol id="file-text" viewBox="0 0 15 15" fill="none">
  <path
    fill-rule="evenodd"
    clip-rule="evenodd"
    d="M3 2.5C3 2.22386 3.22386 2 3.5 2H9.08579C9.21839 2 9.34557 2.05268 9.43934 2.14645L11.8536 4.56066C11.9473 4.65443 12 4.78161 12 4.91421V12.5C12 12.7761 11.7761 13 11.5 13H3.5C3.22386 13 3 12.7761 3 12.5V2.5ZM3.5 1C2.67157 1 2 1.67157 2 2.5V12.5C2 13.3284 2.67157 14 3.5 14H11.5C12.3284 14 13 13.3284 13 12.5V4.91421C13 4.51639 12.842 4.13486 12.5607 3.85355L10.1464 1.43934C9.86514 1.15804 9.48361 1 9.08579 1H3.5ZM4.5 4C4.22386 4 4 4.22386 4 4.5C4 4.77614 4.22386 5 4.5 5H7.5C7.77614 5 8 4.77614 8 4.5C8 4.22386 7.77614 4 7.5 4H4.5ZM4.5 7C4.22386 7 4 7.22386 4 7.5C4 7.77614 4.22386 8 4.5 8H10.5C10.7761 8 11 7.77614 11 7.5C11 7.22386 10.7761 7 10.5 7H4.5ZM4.5 10C4.22386 10 4 10.2239 4 10.5C4 10.7761 4.22386 11 4.5 11H10.5C10.7761 11 11 10.7761 11 10.5C11 10.2239 10.7761 10 10.5 10H4.5Z"
    fill="currentColor"
  />
</symbol>

<symbol id="folder" fill="none" viewBox="0 0 24 24" stroke-width="1.5" stroke="currentColor">
  <path stroke-linecap="round" stroke-linejoin="round" d="M2.25 12.75V12A2.25 2.25 0 014.5 9.75h15A2.25 2.25 0 0121.75 12v.75m-8.69-6.44l-2.12-2.12a1.5 1.5 0 00-1.061-.44H4.5A2.25 2.25 0 002.25 6v12a2.25 2.25 0 002.25 2.25h15A2.25 2.25 0 0021.75 18V9a2.25 2.25 0 00-2.25-2.25h-5.379a1.5 1.5 0 01-1.06-.44z" />
</symbol>

<symbol id="heart" viewBox="0 0 15 15" fill="none"><path d="M4.89346 2.35248C3.49195 2.35248 2.35248 3.49359 2.35248 4.90532C2.35248 6.38164 3.20954 7.9168 4.37255 9.33522C5.39396 10.581 6.59464 11.6702 7.50002 12.4778C8.4054 11.6702 9.60608 10.581 10.6275 9.33522C11.7905 7.9168 12.6476 6.38164 12.6476 4.90532C12.6476 3.49359 11.5081 2.35248 10.1066 2.35248C9.27059 2.35248 8.81894 2.64323 8.5397 2.95843C8.27877 3.25295 8.14623 3.58566 8.02501 3.88993C8.00391 3.9429 7.98315 3.99501 7.96211 4.04591C7.88482 4.23294 7.7024 4.35494 7.50002 4.35494C7.29765 4.35494 7.11523 4.23295 7.03793 4.04592C7.01689 3.99501 6.99612 3.94289 6.97502 3.8899C6.8538 3.58564 6.72126 3.25294 6.46034 2.95843C6.18109 2.64323 5.72945 2.35248 4.89346 2.35248ZM1.35248 4.90532C1.35248 2.94498 2.936 1.35248 4.89346 1.35248C6.0084 1.35248 6.73504 1.76049 7.20884 2.2953C7.32062 2.42147 7.41686 2.55382 7.50002 2.68545C7.58318 2.55382 7.67941 2.42147 7.79119 2.2953C8.265 1.76049 8.99164 1.35248 10.1066 1.35248C12.064 1.35248 13.6476 2.94498 13.6476 4.90532C13.6476 6.74041 12.6013 8.50508 11.4008 9.96927C10.2636 11.3562 8.92194 12.5508 8.00601 13.3664C7.94645 13.4194 7.88869 13.4709 7.83291 13.5206C7.64324 13.6899 7.3568 13.6899 7.16713 13.5206C7.11135 13.4709 7.05359 13.4194 6.99403 13.3664C6.0781 12.5508 4.73641 11.3562 3.59926 9.96927C2.39872 8.50508 1.35248 6.74041 1.35248 4.90532Z" fill="currentColor" fill-rule="evenodd" clip-rule="evenodd"></path></symbol>

<symbol id="language" fill="none" viewBox="0 0 24 24" stroke-width="1.5" stroke="currentColor">
  <path stroke-linecap="round" stroke-linejoin="round" d="M10.5 21l5.25-11.25L21 21m-9-3h7.5M3 5.621a48.474 48.474 0 016-.371m0 0c1.12 0 2.233.038 3.334.114M9 5.25V3m3.334 2.364C11.176 10.658 7.69 15.08 3 17.502m9.334-12.138c.896.061 1.785.147 2.666.257m-4.589 8.495a18.023 18.023 0 01-3.827-5.802" />
</symbol>

<!-- Downloaded from @radix-ui/icons -->
<!-- License https://github.com/radix-ui/icons/blob/master/LICENSE -->
<!-- https://github.com/radix-ui/icons/blob/master/packages/radix-icons/icons/laptop.svg -->
<symbol id="laptop" viewBox="0 0 15 15" fill="none">
  <path
    fill-rule="evenodd"
    clip-rule="evenodd"
    d="M2 4.25C2 4.11193 2.11193 4 2.25 4H12.75C12.8881 4 13 4.11193 13 4.25V11.5H2V4.25ZM2.25 3C1.55964 3 1 3.55964 1 4.25V12H0V12.5C0 12.7761 0.223858 13 0.5 13H14.5C14.7761 13 15 12.7761 15 12.5V12H14V4.25C14 3.55964 13.4404 3 12.75 3H2.25Z"
    fill="currentColor"
  />
</symbol>

<!-- Downloaded from @radix-ui/icons -->
<!-- License https://github.com/radix-ui/icons/blob/master/LICENSE -->
<!-- https://github.com/radix-ui/icons/blob/master/packages/radix-icons/icons/lock-closed.svg -->
<symbol id="lock-closed" viewBox="0 0 15 15" fill="none">
  <path
    fill-rule="evenodd"
    clip-rule="evenodd"
    d="M5 4.63601C5 3.76031 5.24219 3.1054 5.64323 2.67357C6.03934 2.24705 6.64582 1.9783 7.5014 1.9783C8.35745 1.9783 8.96306 2.24652 9.35823 2.67208C9.75838 3.10299 10 3.75708 10 4.63325V5.99999H5V4.63601ZM4 5.99999V4.63601C4 3.58148 4.29339 2.65754 4.91049 1.99307C5.53252 1.32329 6.42675 0.978302 7.5014 0.978302C8.57583 0.978302 9.46952 1.32233 10.091 1.99162C10.7076 2.65557 11 3.57896 11 4.63325V5.99999H12C12.5523 5.99999 13 6.44771 13 6.99999V13C13 13.5523 12.5523 14 12 14H3C2.44772 14 2 13.5523 2 13V6.99999C2 6.44771 2.44772 5.99999 3 5.99999H4ZM3 6.99999H12V13H3V6.99999Z"
    fill="currentColor"
  />
</symbol>

<!-- Downloaded from @radix-ui/icons -->
<!-- License https://github.com/radix-ui/icons/blob/master/LICENSE -->
<!-- https://github.com/radix-ui/icons/blob/master/packages/radix-icons/icons/lock-open-1.svg -->
<symbol id="lock-open-1" viewBox="0 0 15 15" fill="none">
  <path
    fill-rule="evenodd"
    clip-rule="evenodd"
    d="M7.4986 0C6.3257 0 5.36107 0.38943 4.73753 1.19361C4.23745 1.83856 4 2.68242 4 3.63325H5C5 2.84313 5.19691 2.23312 5.5278 1.80636C5.91615 1.30552 6.55152 1 7.4986 1C8.35683 1 8.96336 1.26502 9.35846 1.68623C9.75793 2.11211 10 2.76044 10 3.63601V6H3C2.44772 6 2 6.44772 2 7V13C2 13.5523 2.44772 14 3 14H12C12.5523 14 13 13.5523 13 13V7C13 6.44771 12.5523 6 12 6H11V3.63601C11 2.58135 10.7065 1.66167 10.0878 1.0021C9.46477 0.337871 8.57061 0 7.4986 0ZM3 7H12V13H3V7Z"
    fill="currentColor"
  />
</symbol>

<!-- Downloaded from @radix-ui/icons -->
<!-- License https://github.com/radix-ui/icons/blob/master/LICENSE -->
<!-- https://github.com/radix-ui/icons/blob/master/packages/radix-icons/icons/magnifying-glass.svg -->
<symbol id="magnifying-glass" viewBox="0 0 15 15" fill="none">
  <path
    fill-rule="evenodd"
    clip-rule="evenodd"
    d="M10 6.5C10 8.433 8.433 10 6.5 10C4.567 10 3 8.433 3 6.5C3 4.567 4.567 3 6.5 3C8.433 3 10 4.567 10 6.5ZM9.30884 10.0159C8.53901 10.6318 7.56251 11 6.5 11C4.01472 11 2 8.98528 2 6.5C2 4.01472 4.01472 2 6.5 2C8.98528 2 11 4.01472 11 6.5C11 7.56251 10.6318 8.53901 10.0159 9.30884L12.8536 12.1464C13.0488 12.3417 13.0488 12.6583 12.8536 12.8536C12.6583 13.0488 12.3417 13.0488 12.1464 12.8536L9.30884 10.0159Z"
    fill="currentColor"
  />
</symbol>

<symbol id="mixer-horizontal" viewBox="0 0 15 15" fill="none"><path d="M5.5 3C4.67157 3 4 3.67157 4 4.5C4 5.32843 4.67157 6 5.5 6C6.32843 6 7 5.32843 7 4.5C7 3.67157 6.32843 3 5.5 3ZM3 5C3.01671 5 3.03323 4.99918 3.04952 4.99758C3.28022 6.1399 4.28967 7 5.5 7C6.71033 7 7.71978 6.1399 7.95048 4.99758C7.96677 4.99918 7.98329 5 8 5H13.5C13.7761 5 14 4.77614 14 4.5C14 4.22386 13.7761 4 13.5 4H8C7.98329 4 7.96677 4.00082 7.95048 4.00242C7.71978 2.86009 6.71033 2 5.5 2C4.28967 2 3.28022 2.86009 3.04952 4.00242C3.03323 4.00082 3.01671 4 3 4H1.5C1.22386 4 1 4.22386 1 4.5C1 4.77614 1.22386 5 1.5 5H3ZM11.9505 10.9976C11.7198 12.1399 10.7103 13 9.5 13C8.28967 13 7.28022 12.1399 7.04952 10.9976C7.03323 10.9992 7.01671 11 7 11H1.5C1.22386 11 1 10.7761 1 10.5C1 10.2239 1.22386 10 1.5 10H7C7.01671 10 7.03323 10.0008 7.04952 10.0024C7.28022 8.8601 8.28967 8 9.5 8C10.7103 8 11.7198 8.8601 11.9505 10.0024C11.9668 10.0008 11.9833 10 12 10H13.5C13.7761 10 14 10.2239 14 10.5C14 10.7761 13.7761 11 13.5 11H12C11.9833 11 11.9668 10.9992 11.9505 10.9976ZM8 10.5C8 9.67157 8.67157 9 9.5 9C10.3284 9 11 9.67157 11 10.5C11 11.3284 10.3284 12 9.5 12C8.67157 12 8 11.3284 8 10.5Z" fill="currentColor" fill-rule="evenodd" clip-rule="evenodd"></path></symbol>

<!-- Downloaded from @radix-ui/icons -->
<!-- License https://github.com/radix-ui/icons/blob/master/LICENSE -->
<!-- https://github.com/radix-ui/icons/blob/master/packages/radix-icons/icons/moon.svg -->
<symbol id="moon" viewBox="0 0 15 15" fill="none">
  <path
    fill-rule="evenodd"
    clip-rule="evenodd"
    d="M2.89998 0.499976C2.89998 0.279062 2.72089 0.0999756 2.49998 0.0999756C2.27906 0.0999756 2.09998 0.279062 2.09998 0.499976V1.09998H1.49998C1.27906 1.09998 1.09998 1.27906 1.09998 1.49998C1.09998 1.72089 1.27906 1.89998 1.49998 1.89998H2.09998V2.49998C2.09998 2.72089 2.27906 2.89998 2.49998 2.89998C2.72089 2.89998 2.89998 2.72089 2.89998 2.49998V1.89998H3.49998C3.72089 1.89998 3.89998 1.72089 3.89998 1.49998C3.89998 1.27906 3.72089 1.09998 3.49998 1.09998H2.89998V0.499976ZM5.89998 3.49998C5.89998 3.27906 5.72089 3.09998 5.49998 3.09998C5.27906 3.09998 5.09998 3.27906 5.09998 3.49998V4.09998H4.49998C4.27906 4.09998 4.09998 4.27906 4.09998 4.49998C4.09998 4.72089 4.27906 4.89998 4.49998 4.89998H5.09998V5.49998C5.09998 5.72089 5.27906 5.89998 5.49998 5.89998C5.72089 5.89998 5.89998 5.72089 5.89998 5.49998V4.89998H6.49998C6.72089 4.89998 6.89998 4.72089 6.89998 4.49998C6.89998 4.27906 6.72089 4.09998 6.49998 4.09998H5.89998V3.49998ZM1.89998 6.49998C1.89998 6.27906 1.72089 6.09998 1.49998 6.09998C1.27906 6.09998 1.09998 6.27906 1.09998 6.49998V7.09998H0.499976C0.279062 7.09998 0.0999756 7.27906 0.0999756 7.49998C0.0999756 7.72089 0.279062 7.89998 0.499976 7.89998H1.09998V8.49998C1.09998 8.72089 1.27906 8.89997 1.49998 8.89997C1.72089 8.89997 1.89998 8.72089 1.89998 8.49998V7.89998H2.49998C2.72089 7.89998 2.89998 7.72089 2.89998 7.49998C2.89998 7.27906 2.72089 7.09998 2.49998 7.09998H1.89998V6.49998ZM8.54406 0.98184L8.24618 0.941586C8.03275 0.917676 7.90692 1.1655 8.02936 1.34194C8.17013 1.54479 8.29981 1.75592 8.41754 1.97445C8.91878 2.90485 9.20322 3.96932 9.20322 5.10022C9.20322 8.37201 6.82247 11.0878 3.69887 11.6097C3.45736 11.65 3.20988 11.6772 2.96008 11.6906C2.74563 11.702 2.62729 11.9535 2.77721 12.1072C2.84551 12.1773 2.91535 12.2458 2.98667 12.3128L3.05883 12.3795L3.31883 12.6045L3.50684 12.7532L3.62796 12.8433L3.81491 12.9742L3.99079 13.089C4.11175 13.1651 4.23536 13.2375 4.36157 13.3059L4.62496 13.4412L4.88553 13.5607L5.18837 13.6828L5.43169 13.7686C5.56564 13.8128 5.70149 13.8529 5.83857 13.8885C5.94262 13.9155 6.04767 13.9401 6.15405 13.9622C6.27993 13.9883 6.40713 14.0109 6.53544 14.0298L6.85241 14.0685L7.11934 14.0892C7.24637 14.0965 7.37436 14.1002 7.50322 14.1002C11.1483 14.1002 14.1032 11.1453 14.1032 7.50023C14.1032 7.25044 14.0893 7.00389 14.0623 6.76131L14.0255 6.48407C13.991 6.26083 13.9453 6.04129 13.8891 5.82642C13.8213 5.56709 13.7382 5.31398 13.6409 5.06881L13.5279 4.80132L13.4507 4.63542L13.3766 4.48666C13.2178 4.17773 13.0353 3.88295 12.8312 3.60423L12.6782 3.40352L12.4793 3.16432L12.3157 2.98361L12.1961 2.85951L12.0355 2.70246L11.8134 2.50184L11.4925 2.24191L11.2483 2.06498L10.9562 1.87446L10.6346 1.68894L10.3073 1.52378L10.1938 1.47176L9.95488 1.3706L9.67791 1.2669L9.42566 1.1846L9.10075 1.09489L8.83599 1.03486L8.54406 0.98184ZM10.4032 5.30023C10.4032 4.27588 10.2002 3.29829 9.83244 2.40604C11.7623 3.28995 13.1032 5.23862 13.1032 7.50023C13.1032 10.593 10.596 13.1002 7.50322 13.1002C6.63646 13.1002 5.81597 12.9036 5.08355 12.5522C6.5419 12.0941 7.81081 11.2082 8.74322 10.0416C8.87963 10.2284 9.10028 10.3497 9.34928 10.3497C9.76349 10.3497 10.0993 10.0139 10.0993 9.59971C10.0993 9.24256 9.84965 8.94373 9.51535 8.86816C9.57741 8.75165 9.63653 8.63334 9.6926 8.51332C9.88358 8.63163 10.1088 8.69993 10.35 8.69993C11.0403 8.69993 11.6 8.14028 11.6 7.44993C11.6 6.75976 11.0406 6.20024 10.3505 6.19993C10.3853 5.90487 10.4032 5.60464 10.4032 5.30023Z"
    fill="currentColor"
  />
</symbol>

<!-- Downloaded from @radix-ui/icons -->
<!-- License https://github.com/radix-ui/icons/blob/master/LICENSE -->
<!-- https://github.com/radix-ui/icons/blob/master/packages/radix-icons/icons/pencil-1.svg -->
<symbol id="pencil-1" viewBox="0 0 15 15" fill="none">
  <path
    fill-rule="evenodd"
    clip-rule="evenodd"
    d="M11.8536 1.14645C11.6583 0.951184 11.3417 0.951184 11.1465 1.14645L3.71455 8.57836C3.62459 8.66832 3.55263 8.77461 3.50251 8.89155L2.04044 12.303C1.9599 12.491 2.00189 12.709 2.14646 12.8536C2.29103 12.9981 2.50905 13.0401 2.69697 12.9596L6.10847 11.4975C6.2254 11.4474 6.3317 11.3754 6.42166 11.2855L13.8536 3.85355C14.0488 3.65829 14.0488 3.34171 13.8536 3.14645L11.8536 1.14645ZM4.42166 9.28547L11.5 2.20711L12.7929 3.5L5.71455 10.5784L4.21924 11.2192L3.78081 10.7808L4.42166 9.28547Z"
    fill="currentColor"
  />
</symbol>

<!-- Downloaded from @radix-ui/icons -->
<!-- License https://github.com/radix-ui/icons/blob/master/LICENSE -->
<!-- https://github.com/radix-ui/icons/blob/master/packages/radix-icons/icons/pencil-2.svg -->
<symbol id="pencil-2" viewBox="0 0 15 15" fill="none">
  <path
    fill-rule="evenodd"
    clip-rule="evenodd"
    d="M12.1464 1.14645C12.3417 0.951184 12.6583 0.951184 12.8535 1.14645L14.8535 3.14645C15.0488 3.34171 15.0488 3.65829 14.8535 3.85355L10.9109 7.79618C10.8349 7.87218 10.7471 7.93543 10.651 7.9835L6.72359 9.94721C6.53109 10.0435 6.29861 10.0057 6.14643 9.85355C5.99425 9.70137 5.95652 9.46889 6.05277 9.27639L8.01648 5.34897C8.06455 5.25283 8.1278 5.16507 8.2038 5.08907L12.1464 1.14645ZM12.5 2.20711L8.91091 5.79618L7.87266 7.87267L8.12731 8.12732L10.2038 7.08907L13.7929 3.5L12.5 2.20711ZM9.99998 2L8.99998 3H4.9C4.47171 3 4.18056 3.00039 3.95552 3.01877C3.73631 3.03668 3.62421 3.06915 3.54601 3.10899C3.35785 3.20487 3.20487 3.35785 3.10899 3.54601C3.06915 3.62421 3.03669 3.73631 3.01878 3.95552C3.00039 4.18056 3 4.47171 3 4.9V11.1C3 11.5283 3.00039 11.8194 3.01878 12.0445C3.03669 12.2637 3.06915 12.3758 3.10899 12.454C3.20487 12.6422 3.35785 12.7951 3.54601 12.891C3.62421 12.9309 3.73631 12.9633 3.95552 12.9812C4.18056 12.9996 4.47171 13 4.9 13H11.1C11.5283 13 11.8194 12.9996 12.0445 12.9812C12.2637 12.9633 12.3758 12.9309 12.454 12.891C12.6422 12.7951 12.7951 12.6422 12.891 12.454C12.9309 12.3758 12.9633 12.2637 12.9812 12.0445C12.9996 11.8194 13 11.5283 13 11.1V6.99998L14 5.99998V11.1V11.1207C14 11.5231 14 11.8553 13.9779 12.1259C13.9549 12.407 13.9057 12.6653 13.782 12.908C13.5903 13.2843 13.2843 13.5903 12.908 13.782C12.6653 13.9057 12.407 13.9549 12.1259 13.9779C11.8553 14 11.5231 14 11.1207 14H11.1H4.9H4.87934C4.47686 14 4.14468 14 3.87409 13.9779C3.59304 13.9549 3.33469 13.9057 3.09202 13.782C2.7157 13.5903 2.40973 13.2843 2.21799 12.908C2.09434 12.6653 2.04506 12.407 2.0221 12.1259C1.99999 11.8553 1.99999 11.5231 2 11.1207V11.1206V11.1V4.9V4.87935V4.87932V4.87931C1.99999 4.47685 1.99999 4.14468 2.0221 3.87409C2.04506 3.59304 2.09434 3.33469 2.21799 3.09202C2.40973 2.71569 2.7157 2.40973 3.09202 2.21799C3.33469 2.09434 3.59304 2.04506 3.87409 2.0221C4.14468 1.99999 4.47685 1.99999 4.87932 2H4.87935H4.9H9.99998Z"
    fill="currentColor"
  />
</symbol>

<symbol id="person" viewBox="0 0 15 15" fill="none"><path d="M7.5 0.875C5.49797 0.875 3.875 2.49797 3.875 4.5C3.875 6.15288 4.98124 7.54738 6.49373 7.98351C5.2997 8.12901 4.27557 8.55134 3.50407 9.31167C2.52216 10.2794 2.02502 11.72 2.02502 13.5999C2.02502 13.8623 2.23769 14.0749 2.50002 14.0749C2.76236 14.0749 2.97502 13.8623 2.97502 13.5999C2.97502 11.8799 3.42786 10.7206 4.17091 9.9883C4.91536 9.25463 6.02674 8.87499 7.49995 8.87499C8.97317 8.87499 10.0846 9.25463 10.8291 9.98831C11.5721 10.7206 12.025 11.8799 12.025 13.5999C12.025 13.8623 12.2376 14.0749 12.5 14.0749C12.7623 14.075 12.975 13.8623 12.975 13.6C12.975 11.72 12.4778 10.2794 11.4959 9.31166C10.7244 8.55135 9.70025 8.12903 8.50625 7.98352C10.0187 7.5474 11.125 6.15289 11.125 4.5C11.125 2.49797 9.50203 0.875 7.5 0.875ZM4.825 4.5C4.825 3.02264 6.02264 1.825 7.5 1.825C8.97736 1.825 10.175 3.02264 10.175 4.5C10.175 5.97736 8.97736 7.175 7.5 7.175C6.02264 7.175 4.825 5.97736 4.825 4.5Z" fill="currentColor" fill-rule="evenodd" clip-rule="evenodd"></path></symbol>

<symbol id="play" viewBox="0 0 15 15" fill="none"><path d="M3.24182 2.32181C3.3919 2.23132 3.5784 2.22601 3.73338 2.30781L12.7334 7.05781C12.8974 7.14436 13 7.31457 13 7.5C13 7.68543 12.8974 7.85564 12.7334 7.94219L3.73338 12.6922C3.5784 12.774 3.3919 12.7687 3.24182 12.6782C3.09175 12.5877 3 12.4252 3 12.25V2.75C3 2.57476 3.09175 2.4123 3.24182 2.32181ZM4 3.57925V11.4207L11.4288 7.5L4 3.57925Z" fill="currentColor" fill-rule="evenodd" clip-rule="evenodd"></path></symbol>

<symbol id="plus-circle" viewBox="0 0 15 15" fill="none"><path d="M7.49991 0.876892C3.84222 0.876892 0.877075 3.84204 0.877075 7.49972C0.877075 11.1574 3.84222 14.1226 7.49991 14.1226C11.1576 14.1226 14.1227 11.1574 14.1227 7.49972C14.1227 3.84204 11.1576 0.876892 7.49991 0.876892ZM1.82707 7.49972C1.82707 4.36671 4.36689 1.82689 7.49991 1.82689C10.6329 1.82689 13.1727 4.36671 13.1727 7.49972C13.1727 10.6327 10.6329 13.1726 7.49991 13.1726C4.36689 13.1726 1.82707 10.6327 1.82707 7.49972ZM7.50003 4C7.77617 4 8.00003 4.22386 8.00003 4.5V7H10.5C10.7762 7 11 7.22386 11 7.5C11 7.77614 10.7762 8 10.5 8H8.00003V10.5C8.00003 10.7761 7.77617 11 7.50003 11C7.22389 11 7.00003 10.7761 7.00003 10.5V8H4.50003C4.22389 8 4.00003 7.77614 4.00003 7.5C4.00003 7.22386 4.22389 7 4.50003 7H7.00003V4.5C7.00003 4.22386 7.22389 4 7.50003 4Z" fill="currentColor" fill-rule="evenodd" clip-rule="evenodd"></path></symbol>

<!-- Downloaded from @radix-ui/icons -->
<!-- License https://github.com/radix-ui/icons/blob/master/LICENSE -->
<!-- https://github.com/radix-ui/icons/blob/master/packages/radix-icons/icons/plus.svg -->
<symbol id="plus" viewBox="0 0 15 15" fill="none">
  <path
    fill-rule="evenodd"
    clip-rule="evenodd"
    d="M8 2.75C8 2.47386 7.77614 2.25 7.5 2.25C7.22386 2.25 7 2.47386 7 2.75V7H2.75C2.47386 7 2.25 7.22386 2.25 7.5C2.25 7.77614 2.47386 8 2.75 8H7V12.25C7 12.5261 7.22386 12.75 7.5 12.75C7.77614 12.75 8 12.5261 8 12.25V8H12.25C12.5261 8 12.75 7.77614 12.75 7.5C12.75 7.22386 12.5261 7 12.25 7H8V2.75Z"
    fill="currentColor"
  />
</symbol>

<!-- Downloaded from @radix-ui/icons -->
<!-- License https://github.com/radix-ui/icons/blob/master/LICENSE -->
<!-- https://github.com/radix-ui/icons/blob/master/packages/radix-icons/icons/reset.svg -->
<symbol id="reset" viewBox="0 0 15 15" fill="none">
  <path
    fill-rule="evenodd"
    clip-rule="evenodd"
    d="M4.85355 2.14645C5.04882 2.34171 5.04882 2.65829 4.85355 2.85355L3.70711 4H9C11.4853 4 13.5 6.01472 13.5 8.5C13.5 10.9853 11.4853 13 9 13H5C4.72386 13 4.5 12.7761 4.5 12.5C4.5 12.2239 4.72386 12 5 12H9C10.933 12 12.5 10.433 12.5 8.5C12.5 6.567 10.933 5 9 5H3.70711L4.85355 6.14645C5.04882 6.34171 5.04882 6.65829 4.85355 6.85355C4.65829 7.04882 4.34171 7.04882 4.14645 6.85355L2.14645 4.85355C1.95118 4.65829 1.95118 4.34171 2.14645 4.14645L4.14645 2.14645C4.34171 1.95118 4.65829 1.95118 4.85355 2.14645Z"
    fill="currentColor"
  />
</symbol>

<symbol id="star" viewBox="0 0 15 15" fill="none"><path d="M6.97942 1.25171L6.9585 1.30199L5.58662 4.60039C5.54342 4.70426 5.44573 4.77523 5.3336 4.78422L1.7727 5.0697L1.71841 5.07405L1.38687 5.10063L1.08608 5.12475C0.820085 5.14607 0.712228 5.47802 0.914889 5.65162L1.14406 5.84793L1.39666 6.06431L1.43802 6.09974L4.15105 8.42374C4.23648 8.49692 4.2738 8.61176 4.24769 8.72118L3.41882 12.196L3.40618 12.249L3.32901 12.5725L3.25899 12.866C3.19708 13.1256 3.47945 13.3308 3.70718 13.1917L3.9647 13.0344L4.24854 12.861L4.29502 12.8326L7.34365 10.9705C7.43965 10.9119 7.5604 10.9119 7.6564 10.9705L10.705 12.8326L10.7515 12.861L11.0354 13.0344L11.2929 13.1917C11.5206 13.3308 11.803 13.1256 11.7411 12.866L11.671 12.5725L11.5939 12.249L11.5812 12.196L10.7524 8.72118C10.7263 8.61176 10.7636 8.49692 10.849 8.42374L13.562 6.09974L13.6034 6.06431L13.856 5.84793L14.0852 5.65162C14.2878 5.47802 14.18 5.14607 13.914 5.12475L13.6132 5.10063L13.2816 5.07405L13.2274 5.0697L9.66645 4.78422C9.55432 4.77523 9.45663 4.70426 9.41343 4.60039L8.04155 1.30199L8.02064 1.25171L7.89291 0.944609L7.77702 0.665992C7.67454 0.419604 7.32551 0.419604 7.22303 0.665992L7.10715 0.944609L6.97942 1.25171ZM7.50003 2.60397L6.50994 4.98442C6.32273 5.43453 5.89944 5.74207 5.41351 5.78103L2.84361 5.98705L4.8016 7.66428C5.17183 7.98142 5.33351 8.47903 5.2204 8.95321L4.62221 11.461L6.8224 10.1171C7.23842 9.86302 7.76164 9.86302 8.17766 10.1171L10.3778 11.461L9.77965 8.95321C9.66654 8.47903 9.82822 7.98142 10.1984 7.66428L12.1564 5.98705L9.58654 5.78103C9.10061 5.74207 8.67732 5.43453 8.49011 4.98442L7.50003 2.60397Z" fill="currentColor" fill-rule="evenodd" clip-rule="evenodd"></path></symbol>

<!-- Downloaded from @radix-ui/icons -->
<!-- License https://github.com/radix-ui/icons/blob/master/LICENSE -->
<!-- https://github.com/radix-ui/icons/blob/master/packages/radix-icons/icons/sun.svg -->
<symbol id="sun" viewBox="0 0 15 15" fill="none">
  <path
    fill-rule="evenodd"
    clip-rule="evenodd"
    d="M7.5 0C7.77614 0 8 0.223858 8 0.5V2.5C8 2.77614 7.77614 3 7.5 3C7.22386 3 7 2.77614 7 2.5V0.5C7 0.223858 7.22386 0 7.5 0ZM2.1967 2.1967C2.39196 2.00144 2.70854 2.00144 2.90381 2.1967L4.31802 3.61091C4.51328 3.80617 4.51328 4.12276 4.31802 4.31802C4.12276 4.51328 3.80617 4.51328 3.61091 4.31802L2.1967 2.90381C2.00144 2.70854 2.00144 2.39196 2.1967 2.1967ZM0.5 7C0.223858 7 0 7.22386 0 7.5C0 7.77614 0.223858 8 0.5 8H2.5C2.77614 8 3 7.77614 3 7.5C3 7.22386 2.77614 7 2.5 7H0.5ZM2.1967 12.8033C2.00144 12.608 2.00144 12.2915 2.1967 12.0962L3.61091 10.682C3.80617 10.4867 4.12276 10.4867 4.31802 10.682C4.51328 10.8772 4.51328 11.1938 4.31802 11.3891L2.90381 12.8033C2.70854 12.9986 2.39196 12.9986 2.1967 12.8033ZM12.5 7C12.2239 7 12 7.22386 12 7.5C12 7.77614 12.2239 8 12.5 8H14.5C14.7761 8 15 7.77614 15 7.5C15 7.22386 14.7761 7 14.5 7H12.5ZM10.682 4.31802C10.4867 4.12276 10.4867 3.80617 10.682 3.61091L12.0962 2.1967C12.2915 2.00144 12.608 2.00144 12.8033 2.1967C12.9986 2.39196 12.9986 2.70854 12.8033 2.90381L11.3891 4.31802C11.1938 4.51328 10.8772 4.51328 10.682 4.31802ZM8 12.5C8 12.2239 7.77614 12 7.5 12C7.22386 12 7 12.2239 7 12.5V14.5C7 14.7761 7.22386 15 7.5 15C7.77614 15 8 14.7761 8 14.5V12.5ZM10.682 10.682C10.8772 10.4867 11.1938 10.4867 11.3891 10.682L12.8033 12.0962C12.9986 12.2915 12.9986 12.608 12.8033 12.8033C12.608 12.9986 12.2915 12.9986 12.0962 12.8033L10.682 11.3891C10.4867 11.1938 10.4867 10.8772 10.682 10.682ZM5.5 7.5C5.5 6.39543 6.39543 5.5 7.5 5.5C8.60457 5.5 9.5 6.39543 9.5 7.5C9.5 8.60457 8.60457 9.5 7.5 9.5C6.39543 9.5 5.5 8.60457 5.5 7.5ZM7.5 4.5C5.84315 4.5 4.5 5.84315 4.5 7.5C4.5 9.15685 5.84315 10.5 7.5 10.5C9.15685 10.5 10.5 9.15685 10.5 7.5C10.5 5.84315 9.15685 4.5 7.5 4.5Z"
    fill="currentColor"
  />
</symbol>

<!-- Downloaded from @radix-ui/icons -->
<!-- License https://github.com/radix-ui/icons/blob/master/LICENSE -->
<!-- https://github.com/radix-ui/icons/blob/master/packages/radix-icons/icons/trash.svg -->
<symbol id="trash" viewBox="0 0 15 15" fill="none">
  <path
    fill-rule="evenodd"
    clip-rule="evenodd"
    d="M5.5 1C5.22386 1 5 1.22386 5 1.5C5 1.77614 5.22386 2 5.5 2H9.5C9.77614 2 10 1.77614 10 1.5C10 1.22386 9.77614 1 9.5 1H5.5ZM3 3.5C3 3.22386 3.22386 3 3.5 3H5H10H11.5C11.7761 3 12 3.22386 12 3.5C12 3.77614 11.7761 4 11.5 4H11V12C11 12.5523 10.5523 13 10 13H5C4.44772 13 4 12.5523 4 12V4L3.5 4C3.22386 4 3 3.77614 3 3.5ZM5 4H10V12H5V4Z"
    fill="currentColor"
  />
</symbol>

<!-- Downloaded from @radix-ui/icons -->
<!-- License https://github.com/radix-ui/icons/blob/master/LICENSE -->
<!-- https://github.com/radix-ui/icons/blob/master/packages/radix-icons/icons/update.svg -->
<symbol id="update" viewBox="0 0 15 15" fill="none">
  <path
    fill-rule="evenodd"
    clip-rule="evenodd"
    d="M1.90321 7.29677C1.90321 10.341 4.11041 12.4147 6.58893 12.8439C6.87255 12.893 7.06266 13.1627 7.01355 13.4464C6.96444 13.73 6.69471 13.9201 6.41109 13.871C3.49942 13.3668 0.86084 10.9127 0.86084 7.29677C0.860839 5.76009 1.55996 4.55245 2.37639 3.63377C2.96124 2.97568 3.63034 2.44135 4.16846 2.03202L2.53205 2.03202C2.25591 2.03202 2.03205 1.80816 2.03205 1.53202C2.03205 1.25588 2.25591 1.03202 2.53205 1.03202L5.53205 1.03202C5.80819 1.03202 6.03205 1.25588 6.03205 1.53202L6.03205 4.53202C6.03205 4.80816 5.80819 5.03202 5.53205 5.03202C5.25591 5.03202 5.03205 4.80816 5.03205 4.53202L5.03205 2.68645L5.03054 2.68759L5.03045 2.68766L5.03044 2.68767L5.03043 2.68767C4.45896 3.11868 3.76059 3.64538 3.15554 4.3262C2.44102 5.13021 1.90321 6.10154 1.90321 7.29677ZM13.0109 7.70321C13.0109 4.69115 10.8505 2.6296 8.40384 2.17029C8.12093 2.11718 7.93465 1.84479 7.98776 1.56188C8.04087 1.27898 8.31326 1.0927 8.59616 1.14581C11.4704 1.68541 14.0532 4.12605 14.0532 7.70321C14.0532 9.23988 13.3541 10.4475 12.5377 11.3662C11.9528 12.0243 11.2837 12.5586 10.7456 12.968L12.3821 12.968C12.6582 12.968 12.8821 13.1918 12.8821 13.468C12.8821 13.7441 12.6582 13.968 12.3821 13.968L9.38205 13.968C9.10591 13.968 8.88205 13.7441 8.88205 13.468L8.88205 10.468C8.88205 10.1918 9.10591 9.96796 9.38205 9.96796C9.65819 9.96796 9.88205 10.1918 9.88205 10.468L9.88205 12.3135L9.88362 12.3123C10.4551 11.8813 11.1535 11.3546 11.7585 10.6738C12.4731 9.86976 13.0109 8.89844 13.0109 7.70321Z"
    fill="currentColor"
  />
</symbol>

</svg>
